<svg xmlns="http://www.w3.org/2000/svg" width="25" height="24" viewBox="0 0 25 24" fill="currentColor">
  <g clip-path="url(#clip0_741_12720)">
    <path d="M23.5001 3.00059H13.5001C13.2349 3.00059 12.9805 3.10595 12.793 3.29349C12.6054 3.48102 12.5001 3.73538 12.5001 4.00059V7.27059L10.1001 3.11059C9.92493 2.80517 9.67228 2.55139 9.36763 2.3749C9.06298 2.19841 8.71714 2.10547 8.36507 2.10547C8.01299 2.10547 7.66716 2.19841 7.36251 2.3749C7.05786 2.55139 6.8052 2.80517 6.63007 3.11059L0.630068 13.5006C0.5423 13.6526 0.496094 13.825 0.496094 14.0006C0.496094 14.1761 0.5423 14.3486 0.630068 14.5006C0.718173 14.6532 0.845037 14.7798 0.997814 14.8676C1.15059 14.9554 1.32386 15.0013 1.50007 15.0006H5.79007C5.59591 15.6494 5.4982 16.3233 5.50007 17.0006C5.50007 18.8571 6.23757 20.6376 7.55032 21.9503C8.86308 23.2631 10.6436 24.0006 12.5001 24.0006C14.3566 24.0006 16.1371 23.2631 17.4498 21.9503C18.7626 20.6376 19.5001 18.8571 19.5001 17.0006C19.5019 16.3233 19.4042 15.6494 19.2101 15.0006H23.5001C23.7653 15.0006 24.0196 14.8952 24.2072 14.7077C24.3947 14.5201 24.5001 14.2658 24.5001 14.0006V4.00059C24.5001 3.73538 24.3947 3.48102 24.2072 3.29349C24.0196 3.10595 23.7653 3.00059 23.5001 3.00059ZM3.23007 13.0006L8.36007 4.11059L11.7901 10.0006C10.79 10.1119 9.82568 10.4375 8.96283 10.9552C8.09998 11.4729 7.35889 12.1705 6.79007 13.0006H3.23007ZM12.5001 22.0006C11.5112 22.0006 10.5445 21.7073 9.72222 21.1579C8.89997 20.6085 8.25911 19.8276 7.88067 18.914C7.50223 18.0004 7.40322 16.995 7.59614 16.0251C7.78907 15.0552 8.26527 14.1643 8.96454 13.465C9.6638 12.7658 10.5547 12.2896 11.5246 12.0967C12.4945 11.9037 13.4999 12.0027 14.4135 12.3812C15.3271 12.7596 16.108 13.4005 16.6574 14.2227C17.2068 15.045 17.5001 16.0117 17.5001 17.0006C17.5001 18.3267 16.9733 19.5984 16.0356 20.5361C15.0979 21.4738 13.8262 22.0006 12.5001 22.0006ZM22.5001 13.0006H18.2401C17.3319 11.704 16.015 10.7498 14.5001 10.2906V5.00059H22.5001V13.0006Z" fill="currentColor"/>
  </g>
  <defs>
    <clipPath id="clip0_741_12720">
      <rect width="24" height="24" fill="white" transform="translate(0.5)"/>
    </clipPath>
  </defs>
</svg>