<svg xmlns="http://www.w3.org/2000/svg" width="25" height="26" viewBox="0 0 16 17" fill="none">
  <path d="M12.4735 5.97259C12.4116 5.9101 12.3378 5.86051 12.2566 5.82666C12.1753 5.79282 12.0882 5.77539 12.0002 5.77539C11.9122 5.77539 11.8251 5.79282 11.7438 5.82666C11.6626 5.86051 11.5888 5.9101 11.5269 5.97259L8.47354 9.02592C8.41156 9.0884 8.33783 9.138 8.25659 9.17184C8.17535 9.20569 8.08821 9.22311 8.0002 9.22311C7.9122 9.22311 7.82506 9.20569 7.74382 9.17184C7.66258 9.138 7.58885 9.0884 7.52687 9.02592L4.47354 5.97259C4.41156 5.9101 4.33783 5.86051 4.25659 5.82666C4.17535 5.79282 4.08821 5.77539 4.0002 5.77539C3.91219 5.77539 3.82506 5.79282 3.74382 5.82666C3.66258 5.86051 3.58884 5.9101 3.52687 5.97259C3.4027 6.0975 3.33301 6.26646 3.33301 6.44259C3.33301 6.61871 3.4027 6.78768 3.52687 6.91259L6.58687 9.97258C6.96187 10.3471 7.4702 10.5575 8.0002 10.5575C8.53021 10.5575 9.03854 10.3471 9.41354 9.97258L12.4735 6.91259C12.5977 6.78768 12.6674 6.61871 12.6674 6.44259C12.6674 6.26646 12.5977 6.0975 12.4735 5.97259Z" fill="#171A1C"/>
</svg>