<svg xmlns="http://www.w3.org/2000/svg" width="24" height="24" viewBox="0 0 24 24" fill="none">
  <g clip-path="url(#clip0_946_120)">
    <path d="M22.5535 13.6622L20.6535 6.82618C20.0966 4.82351 18.8863 3.06447 17.2149 1.82865C15.5435 0.592832 13.5069 -0.0488349 11.429 0.00564524C9.35104 0.0601253 7.35093 0.807625 5.74658 2.12933C4.14223 3.45103 3.02572 5.27108 2.57452 7.30018L1.10352 13.9152C0.941032 14.6461 0.944789 15.4042 1.11451 16.1335C1.28423 16.8628 1.61558 17.5446 2.0841 18.1287C2.55262 18.7128 3.14634 19.1842 3.82143 19.5081C4.49652 19.832 5.23574 20.0002 5.98452 20.0002H7.09852C7.32803 21.1305 7.94125 22.1467 8.83426 22.8766C9.72727 23.6065 10.8452 24.0052 11.9985 24.0052C13.1519 24.0052 14.2698 23.6065 15.1628 22.8766C16.0558 22.1467 16.669 21.1305 16.8985 20.0002H17.7365C18.5073 20.0002 19.2677 19.8221 19.9583 19.4796C20.6488 19.1372 21.2509 18.6397 21.7173 18.026C22.1838 17.4124 22.5021 16.6992 22.6473 15.9422C22.7925 15.1852 22.7608 14.4049 22.5545 13.6622H22.5535ZM11.9985 22.0002C11.3803 21.9976 10.7779 21.8041 10.2738 21.4461C9.76975 21.0881 9.3886 20.5831 9.18252 20.0002H14.8145C14.6084 20.5831 14.2273 21.0881 13.7232 21.4461C13.2191 21.8041 12.6168 21.9976 11.9985 22.0002ZM20.1245 16.8152C19.8459 17.1848 19.4848 17.4844 19.0701 17.6901C18.6554 17.8958 18.1984 18.002 17.7355 18.0002H5.98452C5.5353 18.0001 5.09184 17.8991 4.68686 17.7048C4.28188 17.5104 3.92572 17.2275 3.64468 16.8771C3.36363 16.5266 3.16488 16.1176 3.06308 15.68C2.96128 15.2425 2.95904 14.7877 3.05652 14.3492L4.52652 7.73318C4.88087 6.13939 5.75782 4.70978 7.01797 3.67163C8.27812 2.63347 9.84914 2.04635 11.4813 2.00359C13.1134 1.96083 14.713 2.4649 16.0258 3.43565C17.3386 4.4064 18.2892 5.78813 18.7265 7.36118L20.6265 14.1972C20.7521 14.6426 20.7721 15.1111 20.6849 15.5655C20.5978 16.02 20.4059 16.4478 20.1245 16.8152Z" fill="#171A1C"/>
  </g>
  <defs>
    <clipPath id="clip0_946_120">
      <rect width="24" height="24" fill="white"/>
    </clipPath>
  </defs>
</svg>