<svg width="30" height="30" viewBox="0 0 30 30" fill="none" xmlns="http://www.w3.org/2000/svg">
<g clip-path="url(#clip0_667_6545)">
<path d="M27.8993 5.53974L10.6255 22.8122C10.5094 22.9288 10.3714 23.0213 10.2194 23.0845C10.0674 23.1476 9.90446 23.1801 9.73989 23.1801C9.57533 23.1801 9.41238 23.1476 9.2604 23.0845C9.10842 23.0213 8.9704 22.9288 8.85427 22.8122L2.17427 16.126C2.05813 16.0094 1.92011 15.9169 1.76814 15.8537C1.61616 15.7906 1.45321 15.7581 1.28864 15.7581C1.12408 15.7581 0.961128 15.7906 0.80915 15.8537C0.657172 15.9169 0.519155 16.0094 0.403018 16.126C0.286422 16.2421 0.193906 16.3801 0.130779 16.5321C0.0676521 16.6841 0.0351562 16.847 0.0351562 17.0116C0.0351562 17.1762 0.0676521 17.3391 0.130779 17.4911C0.193906 17.6431 0.286422 17.7811 0.403018 17.8972L7.08552 24.5785C7.79045 25.2821 8.74576 25.6773 9.74177 25.6773C10.7378 25.6773 11.6931 25.2821 12.398 24.5785L29.6705 7.30974C29.7869 7.19362 29.8793 7.05568 29.9423 6.90382C30.0053 6.75196 30.0378 6.58915 30.0378 6.42474C30.0378 6.26032 30.0053 6.09752 29.9423 5.94565C29.8793 5.79379 29.7869 5.65585 29.6705 5.53974C29.5544 5.42314 29.4164 5.33063 29.2644 5.2675C29.1124 5.20437 28.9495 5.17188 28.7849 5.17188C28.6203 5.17188 28.4574 5.20437 28.3054 5.2675C28.1534 5.33063 28.0154 5.42314 27.8993 5.53974Z" fill="white"/>
</g>
<defs>
<clipPath id="clip0_667_6545">
<rect width="30" height="30" fill="white"/>
</clipPath>
</defs>
</svg>
