<svg width="44" height="44" viewBox="0 0 44 44" fill="none" xmlns="http://www.w3.org/2000/svg">
<rect width="44" height="44" rx="22" fill="#0759E6"/>
<g clip-path="url(#clip0_1656_16185)">
<path d="M32.3167 14.431L18.4977 28.249C18.4048 28.3423 18.2944 28.4163 18.1728 28.4668C18.0512 28.5173 17.9208 28.5433 17.7892 28.5433C17.6575 28.5433 17.5272 28.5173 17.4056 28.4668C17.284 28.4163 17.1736 28.3423 17.0807 28.249L11.7367 22.9C11.6438 22.8067 11.5334 22.7327 11.4118 22.6822C11.2902 22.6317 11.1598 22.6057 11.0282 22.6057C10.8965 22.6057 10.7662 22.6317 10.6446 22.6822C10.523 22.7327 10.4126 22.8067 10.3197 22.9C10.2264 22.9929 10.1524 23.1033 10.1019 23.2249C10.0514 23.3465 10.0254 23.4769 10.0254 23.6085C10.0254 23.7402 10.0514 23.8705 10.1019 23.9921C10.1524 24.1137 10.2264 24.2241 10.3197 24.317L15.6657 29.662C16.2296 30.2249 16.9939 30.5411 17.7907 30.5411C18.5875 30.5411 19.3517 30.2249 19.9157 29.662L33.7337 15.847C33.8268 15.7541 33.9007 15.6438 33.9511 15.5223C34.0015 15.4008 34.0275 15.2705 34.0275 15.139C34.0275 15.0075 34.0015 14.8772 33.9511 14.7557C33.9007 14.6343 33.8268 14.5239 33.7337 14.431C33.6408 14.3377 33.5304 14.2637 33.4088 14.2132C33.2872 14.1627 33.1568 14.1367 33.0252 14.1367C32.8935 14.1367 32.7632 14.1627 32.6416 14.2132C32.52 14.2637 32.4096 14.3377 32.3167 14.431Z" fill="white"/>
</g>
<defs>
<clipPath id="clip0_1656_16185">
<rect width="24" height="24" fill="white" transform="translate(10 10)"/>
</clipPath>
</defs>
</svg>
