<svg xmlns="http://www.w3.org/2000/svg" width="100" height="100" viewBox="0 0 100 100" fill="none">
  <g clip-path="url(#clip0_939_14952)">
    <path d="M66.6663 33.3339C65.885 32.5527 64.8253 32.1139 63.7205 32.1139C62.6156 32.1139 61.556 32.5527 60.7747 33.3339L49.9997 44.1089L39.2247 33.3339C38.4389 32.5749 37.3864 32.1549 36.2939 32.1644C35.2014 32.1739 34.1563 32.6121 33.3838 33.3846C32.6113 34.1572 32.1731 35.2022 32.1636 36.2947C32.1541 37.3872 32.5741 38.4397 33.333 39.2255L44.108 50.0005L33.333 60.7755C32.5741 61.5614 32.1541 62.6139 32.1636 63.7064C32.1731 64.7989 32.6113 65.8439 33.3838 66.6164C34.1563 67.389 35.2014 67.8272 36.2939 67.8367C37.3864 67.8462 38.4389 67.4262 39.2247 66.6672L49.9997 55.8922L60.7747 66.6672C61.5605 67.4262 62.613 67.8462 63.7055 67.8367C64.798 67.8272 65.843 67.389 66.6156 66.6164C67.3881 65.8439 67.8263 64.7989 67.8358 63.7064C67.8453 62.6139 67.4253 61.5614 66.6663 60.7755L55.8913 50.0005L66.6663 39.2255C67.4475 38.4442 67.8863 37.3846 67.8863 36.2797C67.8863 35.1749 67.4475 34.1152 66.6663 33.3339Z" fill="#ABD5FF"/>
    <path d="M50 0C40.111 0 30.444 2.93245 22.2215 8.42652C13.9991 13.9206 7.59043 21.7295 3.80605 30.8658C0.0216643 40.0021 -0.968503 50.0555 0.960758 59.7545C2.89002 69.4536 7.65206 78.3627 14.6447 85.3553C21.6373 92.348 30.5465 97.11 40.2455 99.0393C49.9446 100.969 59.9979 99.9784 69.1342 96.194C78.2705 92.4096 86.0794 86.001 91.5735 77.7785C97.0676 69.5561 100 59.8891 100 50C99.9857 36.7436 94.7132 24.0342 85.3395 14.6605C75.9658 5.28678 63.2564 0.0143378 50 0ZM50 91.6667C41.7591 91.6667 33.7033 89.223 26.8513 84.6446C19.9992 80.0662 14.6587 73.5587 11.505 65.9452C8.35139 58.3316 7.52625 49.9538 9.13397 41.8712C10.7417 33.7887 14.7101 26.3644 20.5372 20.5372C26.3644 14.71 33.7887 10.7417 41.8713 9.13395C49.9538 7.52623 58.3316 8.35137 65.9452 11.505C73.5588 14.6587 80.0662 19.9992 84.6446 26.8512C89.223 33.7033 91.6667 41.7591 91.6667 50C91.6545 61.047 87.2608 71.638 79.4494 79.4494C71.638 87.2608 61.047 91.6545 50 91.6667Z" fill="#ABD5FF"/>
  </g>
  <defs>
    <clipPath id="clip0_939_14952">
      <rect width="100" height="100" fill="white"/>
    </clipPath>
  </defs>
</svg>