<svg width="24" height="24" viewBox="0 0 24 24" fill="none" xmlns="http://www.w3.org/2000/svg">
<g clip-path="url(#clip0_686_13049)">
<path d="M23.2715 9.4183C21.7205 6.8923 18.1925 2.6543 12.0005 2.6543C5.80854 2.6543 2.28054 6.8923 0.72954 9.4183C0.250068 10.1938 -0.00390625 11.0875 -0.00390625 11.9993C-0.00390625 12.9111 0.250068 13.8048 0.72954 14.5803C2.28054 17.1063 5.80854 21.3443 12.0005 21.3443C18.1925 21.3443 21.7205 17.1063 23.2715 14.5803C23.751 13.8048 24.005 12.9111 24.005 11.9993C24.005 11.0875 23.751 10.1938 23.2715 9.4183ZM21.5665 13.5333C20.2345 15.6993 17.2195 19.3443 12.0005 19.3443C6.78154 19.3443 3.76654 15.6993 2.43454 13.5333C2.14967 13.0723 1.99879 12.5412 1.99879 11.9993C1.99879 11.4574 2.14967 10.9263 2.43454 10.4653C3.76654 8.2993 6.78154 4.6543 12.0005 4.6543C17.2195 4.6543 20.2345 8.2953 21.5665 10.4653C21.8514 10.9263 22.0023 11.4574 22.0023 11.9993C22.0023 12.5412 21.8514 13.0723 21.5665 13.5333Z" fill="#4E575F"/>
<path d="M12.0005 6.99928C11.0115 6.99928 10.0448 7.29252 9.2226 7.84193C8.40036 8.39133 7.75949 9.17223 7.38106 10.0859C7.00262 10.9995 6.9036 12.0048 7.09653 12.9747C7.28945 13.9446 7.76566 14.8355 8.46492 15.5348C9.16418 16.2341 10.0551 16.7103 11.025 16.9032C11.9949 17.0961 13.0002 16.9971 13.9139 16.6187C14.8275 16.2402 15.6084 15.5994 16.1578 14.7771C16.7072 13.9549 17.0005 12.9882 17.0005 11.9993C16.9989 10.6737 16.4716 9.40283 15.5342 8.4655C14.5969 7.52816 13.326 7.00086 12.0005 6.99928ZM12.0005 14.9993C11.4071 14.9993 10.8271 14.8233 10.3337 14.4937C9.8404 14.164 9.45588 13.6955 9.22882 13.1473C9.00175 12.5991 8.94234 11.9959 9.0581 11.414C9.17385 10.8321 9.45958 10.2975 9.87913 9.87795C10.2987 9.4584 10.8332 9.17267 11.4152 9.05692C11.9971 8.94116 12.6003 9.00057 13.1485 9.22764C13.6967 9.4547 14.1652 9.83922 14.4949 10.3326C14.8245 10.8259 15.0005 11.4059 15.0005 11.9993C15.0005 12.7949 14.6844 13.558 14.1218 14.1206C13.5592 14.6832 12.7961 14.9993 12.0005 14.9993Z" fill="#4E575F"/>
</g>
<defs>
<clipPath id="clip0_686_13049">
<rect width="24" height="24" fill="white"/>
</clipPath>
</defs>
</svg>
