<svg width="24" height="24" viewBox="0 0 24 24" fill="none" xmlns="http://www.w3.org/2000/svg">
<g clip-path="url(#clip0_678_8000)">
<path d="M23.2706 9.41934C22.3678 7.94106 21.2291 6.62059 19.8996 5.51034L22.6996 2.71034C22.8817 2.52173 22.9825 2.26913 22.9802 2.00694C22.978 1.74474 22.8728 1.49393 22.6874 1.30852C22.502 1.12311 22.2512 1.01794 21.989 1.01566C21.7268 1.01338 21.4742 1.11418 21.2856 1.29634L18.2406 4.34534C16.353 3.22416 14.195 2.6398 11.9996 2.65534C5.80856 2.65534 2.28056 6.89334 0.728563 9.41934C0.249091 10.1948 -0.00488281 11.0886 -0.00488281 12.0003C-0.00488281 12.9121 0.249091 13.8058 0.728563 14.5813C1.63132 16.0596 2.77005 17.3801 4.09956 18.4903L1.29956 21.2903C1.20405 21.3826 1.12787 21.4929 1.07546 21.6149C1.02305 21.7369 0.995466 21.8682 0.994313 22.0009C0.993159 22.1337 1.01846 22.2654 1.06874 22.3883C1.11902 22.5112 1.19328 22.6228 1.28717 22.7167C1.38106 22.8106 1.49271 22.8849 1.61561 22.9352C1.73851 22.9854 1.87018 23.0107 2.00296 23.0096C2.13574 23.0084 2.26696 22.9808 2.38897 22.9284C2.51097 22.876 2.62132 22.7998 2.71356 22.7043L5.76556 19.6523C7.65083 20.7733 9.80623 21.3587 11.9996 21.3453C18.1906 21.3453 21.7186 17.1073 23.2706 14.5813C23.75 13.8058 24.004 12.9121 24.004 12.0003C24.004 11.0886 23.75 10.1948 23.2706 9.41934ZM2.43256 13.5343C2.1477 13.0734 1.99681 12.5422 1.99681 12.0003C1.99681 11.4585 2.1477 10.9273 2.43256 10.4663C3.76656 8.30034 6.78156 4.65534 11.9996 4.65534C13.6598 4.64604 15.2968 5.04617 16.7656 5.82034L14.7526 7.83334C13.7925 7.19594 12.6415 6.91033 11.4948 7.02498C10.3481 7.13963 9.27643 7.64748 8.46157 8.46234C7.6467 9.2772 7.13886 10.3489 7.02421 11.4956C6.90956 12.6422 7.19516 13.7933 7.83256 14.7533L5.52256 17.0633C4.29767 16.0731 3.2524 14.8793 2.43256 13.5343ZM14.9996 12.0003C14.9996 12.796 14.6835 13.559 14.1209 14.1217C13.5583 14.6843 12.7952 15.0003 11.9996 15.0003C11.5541 14.9986 11.1148 14.896 10.7146 14.7003L14.6996 10.7153C14.8953 11.1155 14.9978 11.5548 14.9996 12.0003ZM8.99956 12.0003C8.99956 11.2047 9.31563 10.4416 9.87824 9.87902C10.4409 9.31641 11.2039 9.00034 11.9996 9.00034C12.4451 9.00206 12.8844 9.10463 13.2846 9.30034L9.29956 13.2853C9.10385 12.8851 9.00129 12.4458 8.99956 12.0003ZM21.5666 13.5343C20.2326 15.7003 17.2176 19.3453 11.9996 19.3453C10.3393 19.3546 8.70233 18.9545 7.23356 18.1803L9.24656 16.1673C10.2066 16.8047 11.3577 17.0903 12.5043 16.9757C13.651 16.861 14.7227 16.3532 15.5376 15.5383C16.3524 14.7235 16.8603 13.6518 16.9749 12.5051C17.0896 11.3584 16.804 10.2074 16.1666 9.24734L18.4766 6.93734C19.7015 7.92762 20.7467 9.12138 21.5666 10.4663C21.8514 10.9273 22.0023 11.4585 22.0023 12.0003C22.0023 12.5422 21.8514 13.0734 21.5666 13.5343Z" fill="#171A1C"/>
</g>
<defs>
<clipPath id="clip0_678_8000">
<rect width="24" height="24" fill="white"/>
</clipPath>
</defs>
</svg>
