<svg xmlns="http://www.w3.org/2000/svg" width="25" height="24" viewBox="0 0 25 24" fill="none">
  <g clip-path="url(#clip0_741_12364)">
    <path d="M14.432 4C15.2454 4.00079 16.0253 4.32428 16.6005 4.89947C17.1757 5.47466 17.4992 6.25456 17.5 7.068C17.5 7.33322 17.6054 7.58757 17.7929 7.77511C17.9804 7.96264 18.2348 8.068 18.5 8.068C18.7652 8.068 19.0196 7.96264 19.2071 7.77511C19.3946 7.58757 19.5 7.33322 19.5 7.068V7C19.5 6.981 19.5 6.964 19.5 6.945C19.4666 5.62273 18.9181 4.36578 17.9714 3.44206C17.0247 2.51833 15.7547 2.00088 14.432 2H13.5V1C13.5 0.734784 13.3946 0.48043 13.2071 0.292893C13.0196 0.105357 12.7652 0 12.5 0C12.2348 0 11.9804 0.105357 11.7929 0.292893C11.6054 0.48043 11.5 0.734784 11.5 1V2H10.568C9.36532 2.00128 8.20229 2.43023 7.28679 3.21018C6.3713 3.99012 5.76301 5.07022 5.57065 6.25742C5.3783 7.44462 5.61441 8.66154 6.23679 9.69066C6.85917 10.7198 7.82726 11.494 8.968 11.875L11.5 12.72V20H10.568C9.75456 19.9992 8.97466 19.6757 8.39947 19.1005C7.82428 18.5253 7.50079 17.7454 7.5 16.932C7.5 16.6668 7.39464 16.4124 7.20711 16.2249C7.01957 16.0374 6.76522 15.932 6.5 15.932C6.23478 15.932 5.98043 16.0374 5.79289 16.2249C5.60536 16.4124 5.5 16.6668 5.5 16.932V17C5.5 17.019 5.5 17.036 5.5 17.055C5.53337 18.3773 6.08186 19.6342 7.02856 20.5579C7.97527 21.4817 9.24531 21.9991 10.568 22H11.5V23C11.5 23.2652 11.6054 23.5196 11.7929 23.7071C11.9804 23.8946 12.2348 24 12.5 24C12.7652 24 13.0196 23.8946 13.2071 23.7071C13.3946 23.5196 13.5 23.2652 13.5 23V22H14.432C15.6347 21.9987 16.7977 21.5698 17.7132 20.7898C18.6287 20.0099 19.237 18.9298 19.4293 17.7426C19.6217 16.5554 19.3856 15.3385 18.7632 14.3093C18.1408 13.2802 17.1727 12.506 16.032 12.125L13.5 11.28V4H14.432ZM15.402 14.021C16.0934 14.2511 16.6804 14.7198 17.0577 15.3432C17.4351 15.9666 17.5782 16.704 17.4615 17.4233C17.3448 18.1426 16.9759 18.7969 16.4208 19.269C15.8657 19.7411 15.1607 20.0003 14.432 20H13.5V13.387L15.402 14.021ZM11.5 10.613L9.6 9.979C8.90874 9.74893 8.32191 9.28037 7.94453 8.65718C7.56716 8.034 7.42387 7.29685 7.5403 6.57768C7.65674 5.8585 8.0253 5.20422 8.58003 4.73194C9.13476 4.25966 9.83946 4.00021 10.568 4H11.5V10.613Z" fill="#848F9A"/>
  </g>
  <defs>
    <clipPath id="clip0_741_12364">
      <rect width="24" height="24" fill="white" transform="translate(0.5)"/>
    </clipPath>
  </defs>
</svg>