<svg xmlns="http://www.w3.org/2000/svg" width="25" height="24" viewBox="0 0 25 24" fill="none">
  <g clip-path="url(#clip0_741_9330)">
    <path d="M18.5 0H6.5C6.23478 0 5.98043 0.105357 5.79289 0.292893C5.60536 0.48043 5.5 0.734784 5.5 1C5.5 1.26522 5.60536 1.51957 5.79289 1.70711C5.98043 1.89464 6.23478 2 6.5 2H7.5V19C7.5 20.3261 8.02678 21.5979 8.96447 22.5355C9.90215 23.4732 11.1739 24 12.5 24C13.8261 24 15.0979 23.4732 16.0355 22.5355C16.9732 21.5979 17.5 20.3261 17.5 19V2H18.5C18.7652 2 19.0196 1.89464 19.2071 1.70711C19.3946 1.51957 19.5 1.26522 19.5 1C19.5 0.734784 19.3946 0.48043 19.2071 0.292893C19.0196 0.105357 18.7652 0 18.5 0V0ZM12.5 22C11.7044 22 10.9413 21.6839 10.3787 21.1213C9.81607 20.5587 9.5 19.7956 9.5 19V9H15.5V19C15.5 19.7956 15.1839 20.5587 14.6213 21.1213C14.0587 21.6839 13.2956 22 12.5 22ZM15.5 7H9.5V2H15.5V7Z" fill="#848F9A"/>
  </g>
  <defs>
    <clipPath id="clip0_741_9330">
      <rect width="24" height="24" fill="white" transform="translate(0.5)"/>
    </clipPath>
  </defs>
</svg>