<svg xmlns="http://www.w3.org/2000/svg" width="27" height="24" viewBox="0 0 27 24" fill="none">
  <g clip-path="url(#clip0_793_11098)">
    <path d="M25.7096 1.14991C24.9448 0.471104 23.9082 0.0898438 22.8274 0.0898438C21.7466 0.0898438 20.71 0.471104 19.9451 1.14991L1.64814 17.4139C1.12417 17.877 0.708724 18.4279 0.425827 19.0347C0.14293 19.6415 -0.00179772 20.2921 1.68539e-05 20.9489V23.0019C1.68539e-05 23.2671 0.118543 23.5215 0.329522 23.709C0.5405 23.8966 0.826648 24.0019 1.12502 24.0019H3.43464C4.1735 24.0038 4.90543 23.8753 5.58807 23.624C6.2707 23.3727 6.89048 23.0036 7.41152 22.5379L25.7096 6.27291C26.473 5.5931 26.9017 4.67187 26.9017 3.71141C26.9017 2.75094 26.473 1.82971 25.7096 1.14991V1.14991ZM5.82077 21.1239C5.18627 21.6842 4.32898 21.9996 3.43464 22.0019H2.25002V20.9489C2.24888 20.5548 2.33569 20.1644 2.50543 19.8004C2.67517 19.4363 2.92447 19.1058 3.23889 18.8279L17.1248 6.48491L19.7123 8.78491L5.82077 21.1239ZM24.1178 4.85891L21.2985 7.36591L18.711 5.07091L21.5314 2.56391C21.7013 2.41322 21.9029 2.29374 22.1248 2.21232C22.3466 2.13089 22.5843 2.0891 22.8243 2.08933C23.0643 2.08956 23.3019 2.13181 23.5236 2.21367C23.7452 2.29553 23.9466 2.41539 24.1161 2.56641C24.2856 2.71743 24.42 2.89665 24.5116 3.09384C24.6032 3.29103 24.6502 3.50233 24.65 3.71567C24.6497 3.92902 24.6022 4.14023 24.5101 4.33724C24.418 4.53425 24.2832 4.71322 24.1133 4.86391L24.1178 4.85891Z" fill="#4E575F"/>
  </g>
  <defs>
    <clipPath id="clip0_793_11098">
      <rect width="27" height="24" fill="white"/>
    </clipPath>
  </defs>
</svg>