<svg width="24" height="24" viewBox="0 0 24 24" fill="none" xmlns="http://www.w3.org/2000/svg">
<g clip-path="url(#clip0_686_13087)">
<path d="M17.6538 11.9938C17.6538 11.7286 17.5484 11.4743 17.3609 11.2868C17.1734 11.0993 16.9191 10.994 16.654 10.9939L12.9968 10.9939L12.9968 7.33678C12.9923 7.07461 12.8849 6.82472 12.6979 6.64093C12.5109 6.45714 12.2592 6.35416 11.997 6.35416C11.7348 6.35416 11.483 6.45714 11.296 6.64093C11.109 6.82472 11.0017 7.07461 10.9971 7.33678L10.9971 10.9939L7.33996 10.9939C7.07779 10.9985 6.8279 11.1058 6.64411 11.2928C6.46032 11.4799 6.35734 11.7316 6.35734 11.9938C6.35734 12.256 6.46032 12.5077 6.64411 12.6947C6.8279 12.8817 7.07779 12.9891 7.33996 12.9936L10.9971 12.9936L10.9971 16.6508C11.0017 16.9129 11.109 17.1628 11.296 17.3466C11.483 17.5304 11.7347 17.6334 11.997 17.6334C12.2592 17.6334 12.5109 17.5304 12.6979 17.3466C12.8849 17.1628 12.9922 16.9129 12.9968 16.6508L12.9968 12.9936L16.654 12.9936C16.9191 12.9936 17.1734 12.8882 17.3609 12.7007C17.5484 12.5132 17.6538 12.2589 17.6538 11.9938Z" fill="#4E575F"/>
<path d="M12 0C9.62663 0 7.30655 0.703788 5.33316 2.02236C3.35977 3.34094 1.8217 5.21509 0.913451 7.4078C0.00519943 9.60051 -0.232441 12.0133 0.230582 14.3411C0.693605 16.6689 1.83649 18.8071 3.51472 20.4853C5.19295 22.1635 7.33115 23.3064 9.65892 23.7694C11.9867 24.2324 14.3995 23.9948 16.5922 23.0866C18.7849 22.1783 20.6591 20.6402 21.9776 18.6668C23.2962 16.6935 24 14.3734 24 12C23.9966 8.81846 22.7312 5.76821 20.4815 3.51852C18.2318 1.26883 15.1815 0.00344108 12 0ZM12 22C10.0222 22 8.08879 21.4135 6.4443 20.3147C4.79981 19.2159 3.51809 17.6541 2.76121 15.8268C2.00433 13.9996 1.8063 11.9889 2.19215 10.0491C2.578 8.10929 3.53041 6.32746 4.92894 4.92893C6.32746 3.53041 8.10929 2.578 10.0491 2.19215C11.9889 1.8063 13.9996 2.00433 15.8268 2.7612C17.6541 3.51808 19.2159 4.79981 20.3147 6.4443C21.4135 8.08879 22 10.0222 22 12C21.9971 14.6513 20.9426 17.1931 19.0679 19.0679C17.1931 20.9426 14.6513 21.9971 12 22Z" fill="#4E575F"/>
</g>
<defs>
<clipPath id="clip0_686_13087">
<rect width="24" height="24" fill="white"/>
</clipPath>
</defs>
</svg>
