<svg xmlns="http://www.w3.org/2000/svg" width="25" height="24" viewBox="0 0 25 24" fill="none">
  <g clip-path="url(#clip0_741_13244)">
    <path d="M24.5 10.0001C24.5 9.92709 24.492 9.85431 24.476 9.78308L23.176 3.91508C22.9345 2.80132 22.3173 1.80447 21.4281 1.09167C20.5389 0.378865 19.4316 -0.00653638 18.292 8.38888e-05H6.708C5.56905 -0.00561641 4.46273 0.380206 3.57433 1.09293C2.68593 1.80565 2.0694 2.802 1.828 3.91508L0.524001 9.78308C0.508009 9.85431 0.49996 9.92709 0.500001 10.0001V11.0001C0.499195 11.9737 0.854923 12.9139 1.5 13.6431V19.0001C1.50159 20.3257 2.02888 21.5965 2.96622 22.5339C3.90356 23.4712 5.17441 23.9985 6.5 24.0001H18.5C19.8256 23.9985 21.0964 23.4712 22.0338 22.5339C22.9711 21.5965 23.4984 20.3257 23.5 19.0001V13.6431C24.1451 12.9139 24.5008 11.9737 24.5 11.0001V10.0001ZM2.5 10.1091L3.78 4.34908C3.92504 3.68134 4.29502 3.08366 4.82801 2.65606C5.36101 2.22846 6.02469 1.99689 6.708 2.00008H7.5V5.00008C7.5 5.2653 7.60536 5.51965 7.7929 5.70719C7.98043 5.89473 8.23479 6.00008 8.5 6.00008C8.76522 6.00008 9.01957 5.89473 9.20711 5.70719C9.39464 5.51965 9.5 5.2653 9.5 5.00008V2.00008H15.5V5.00008C15.5 5.2653 15.6054 5.51965 15.7929 5.70719C15.9804 5.89473 16.2348 6.00008 16.5 6.00008C16.7652 6.00008 17.0196 5.89473 17.2071 5.70719C17.3946 5.51965 17.5 5.2653 17.5 5.00008V2.00008H18.292C18.9753 1.99689 19.639 2.22846 20.172 2.65606C20.705 3.08366 21.075 3.68134 21.22 4.34908L22.5 10.1091V11.0001C22.5 11.5305 22.2893 12.0392 21.9142 12.4143C21.5391 12.7894 21.0304 13.0001 20.5 13.0001H19.5C18.9696 13.0001 18.4609 12.7894 18.0858 12.4143C17.7107 12.0392 17.5 11.5305 17.5 11.0001C17.5 10.7349 17.3946 10.4805 17.2071 10.293C17.0196 10.1054 16.7652 10.0001 16.5 10.0001C16.2348 10.0001 15.9804 10.1054 15.7929 10.293C15.6054 10.4805 15.5 10.7349 15.5 11.0001C15.5 11.5305 15.2893 12.0392 14.9142 12.4143C14.5391 12.7894 14.0304 13.0001 13.5 13.0001H11.5C10.9696 13.0001 10.4609 12.7894 10.0858 12.4143C9.71072 12.0392 9.5 11.5305 9.5 11.0001C9.5 10.7349 9.39464 10.4805 9.20711 10.293C9.01957 10.1054 8.76522 10.0001 8.5 10.0001C8.23479 10.0001 7.98043 10.1054 7.7929 10.293C7.60536 10.4805 7.5 10.7349 7.5 11.0001C7.5 11.5305 7.28929 12.0392 6.91422 12.4143C6.53914 12.7894 6.03044 13.0001 5.5 13.0001H4.5C3.96957 13.0001 3.46086 12.7894 3.08579 12.4143C2.71072 12.0392 2.5 11.5305 2.5 11.0001V10.1091ZM18.5 22.0001H6.5C5.70435 22.0001 4.94129 21.684 4.37868 21.1214C3.81607 20.5588 3.5 19.7957 3.5 19.0001V14.8731C3.8266 14.9577 4.16263 15.0003 4.5 15.0001H5.5C6.06782 15.0004 6.62916 14.8795 7.14651 14.6455C7.66386 14.4115 8.1253 14.0697 8.5 13.6431C8.8747 14.0697 9.33615 14.4115 9.8535 14.6455C10.3708 14.8795 10.9322 15.0004 11.5 15.0001H13.5C14.0678 15.0004 14.6292 14.8795 15.1465 14.6455C15.6639 14.4115 16.1253 14.0697 16.5 13.6431C16.8747 14.0697 17.3361 14.4115 17.8535 14.6455C18.3708 14.8795 18.9322 15.0004 19.5 15.0001H20.5C20.8374 15.0003 21.1734 14.9577 21.5 14.8731V19.0001C21.5 19.7957 21.1839 20.5588 20.6213 21.1214C20.0587 21.684 19.2957 22.0001 18.5 22.0001Z" fill="#848F9A"/>
  </g>
  <defs>
    <clipPath id="clip0_741_13244">
      <rect width="24" height="24" fill="white" transform="translate(0.5)"/>
    </clipPath>
  </defs>
</svg>