<svg xmlns="http://www.w3.org/2000/svg" width="25" height="24" viewBox="0 0 25 24" fill="none">
  <g clip-path="url(#clip0_1315_5085)">
    <path d="M12.5 24C10.1266 24 7.80655 23.2962 5.83316 21.9776C3.85977 20.6591 2.3217 18.7849 1.41345 16.5922C0.505199 14.3995 0.267559 11.9867 0.730582 9.65892C1.1936 7.33115 2.33649 5.19295 4.01472 3.51472C5.69295 1.83649 7.83115 0.693605 10.1589 0.230582C12.4867 -0.232441 14.8995 0.00519943 17.0922 0.913451C19.2849 1.8217 21.1591 3.35977 22.4776 5.33316C23.7962 7.30655 24.5 9.62663 24.5 12C24.4966 15.1815 23.2312 18.2318 20.9815 20.4815C18.7318 22.7312 15.6815 23.9966 12.5 24ZM12.5 2.00001C10.5222 2.00001 8.58879 2.5865 6.9443 3.68531C5.29981 4.78412 4.01809 6.34591 3.26121 8.17317C2.50433 10.0004 2.3063 12.0111 2.69215 13.9509C3.078 15.8907 4.03041 17.6725 5.42894 19.0711C6.82746 20.4696 8.60929 21.422 10.5491 21.8079C12.4889 22.1937 14.4996 21.9957 16.3268 21.2388C18.1541 20.4819 19.7159 19.2002 20.8147 17.5557C21.9135 15.9112 22.5 13.9778 22.5 12C22.4971 9.34873 21.4426 6.80689 19.5679 4.93215C17.6931 3.05742 15.1513 2.00292 12.5 2.00001ZM8.50001 14C8.34394 13.9993 8.18988 14.0351 8.05015 14.1047C7.91042 14.1742 7.7889 14.2754 7.69531 14.4003C7.60171 14.5252 7.53865 14.6702 7.51116 14.8239C7.48368 14.9775 7.49253 15.1354 7.53701 15.285C7.8953 16.3325 8.56136 17.2475 9.44809 17.9103C10.3348 18.5731 11.4009 18.9529 12.507 19C13.6135 18.9564 14.6808 18.5778 15.5675 17.9145C16.4542 17.2511 17.1187 16.3342 17.473 15.285C17.513 15.1356 17.5186 14.9791 17.4893 14.8273C17.46 14.6754 17.3966 14.5322 17.3038 14.4084C17.2111 14.2847 17.0914 14.1836 16.9539 14.1129C16.8164 14.0421 16.6646 14.0035 16.51 14H8.50001ZM6.50001 10C6.50001 11 7.39501 11 8.50001 11C9.60501 11 10.5 11 10.5 10C10.5 9.46957 10.2893 8.96087 9.91422 8.58579C9.53915 8.21072 9.03044 8.00001 8.50001 8.00001C7.96957 8.00001 7.46086 8.21072 7.08579 8.58579C6.71072 8.96087 6.50001 9.46957 6.50001 10ZM14.5 10C14.5 11 15.395 11 16.5 11C17.605 11 18.5 11 18.5 10C18.5 9.46957 18.2893 8.96087 17.9142 8.58579C17.5391 8.21072 17.0304 8.00001 16.5 8.00001C15.9696 8.00001 15.4609 8.21072 15.0858 8.58579C14.7107 8.96087 14.5 9.46957 14.5 10Z" fill="#848F9A"/>
  </g>
  <defs>
    <clipPath id="clip0_1315_5085">
      <rect width="24" height="24" fill="white" transform="translate(0.5)"/>
    </clipPath>
  </defs>
</svg>