<svg width="24" height="24" viewBox="0 0 24 24" fill="none" xmlns="http://www.w3.org/2000/svg">
<g clip-path="url(#clip0_1527_4788)">
<path d="M20.9973 4H17.8973C17.6652 2.87141 17.0511 1.85735 16.1586 1.12872C15.266 0.40009 14.1495 0.00145452 12.9973 0H10.9973C9.84511 0.00145452 8.72863 0.40009 7.83606 1.12872C6.94349 1.85735 6.32941 2.87141 6.09731 4H2.99731C2.7321 4 2.47774 4.10536 2.29021 4.29289C2.10267 4.48043 1.99731 4.73478 1.99731 5C1.99731 5.26522 2.10267 5.51957 2.29021 5.70711C2.47774 5.89464 2.7321 6 2.99731 6H3.99731V19C3.9989 20.3256 4.5262 21.5964 5.46353 22.5338C6.40087 23.4711 7.67172 23.9984 8.99731 24H14.9973C16.3229 23.9984 17.5938 23.4711 18.5311 22.5338C19.4684 21.5964 19.9957 20.3256 19.9973 19V6H20.9973C21.2625 6 21.5169 5.89464 21.7044 5.70711C21.892 5.51957 21.9973 5.26522 21.9973 5C21.9973 4.73478 21.892 4.48043 21.7044 4.29289C21.5169 4.10536 21.2625 4 20.9973 4ZM10.9973 2H12.9973C13.6176 2.00076 14.2224 2.19338 14.7289 2.55144C15.2354 2.90951 15.6187 3.41549 15.8263 4H8.16831C8.3759 3.41549 8.75921 2.90951 9.2657 2.55144C9.77219 2.19338 10.377 2.00076 10.9973 2ZM17.9973 19C17.9973 19.7956 17.6812 20.5587 17.1186 21.1213C16.556 21.6839 15.793 22 14.9973 22H8.99731C8.20166 22 7.4386 21.6839 6.87599 21.1213C6.31338 20.5587 5.99731 19.7956 5.99731 19V6H17.9973V19Z" fill="white"/>
<path d="M9.9974 17.9994C10.2626 17.9994 10.517 17.894 10.7045 17.7065C10.892 17.5189 10.9974 17.2646 10.9974 16.9994V10.9994C10.9974 10.7342 10.892 10.4798 10.7045 10.2923C10.517 10.1047 10.2626 9.99938 9.9974 9.99938C9.73218 9.99938 9.47783 10.1047 9.29029 10.2923C9.10276 10.4798 8.9974 10.7342 8.9974 10.9994V16.9994C8.9974 17.2646 9.10276 17.5189 9.29029 17.7065C9.47783 17.894 9.73218 17.9994 9.9974 17.9994Z" fill="white"/>
<path d="M13.9973 17.9994C14.2625 17.9994 14.5168 17.894 14.7044 17.7065C14.8919 17.5189 14.9973 17.2646 14.9973 16.9994V10.9994C14.9973 10.7342 14.8919 10.4798 14.7044 10.2923C14.5168 10.1047 14.2625 9.99938 13.9973 9.99938C13.732 9.99938 13.4777 10.1047 13.2901 10.2923C13.1026 10.4798 12.9973 10.7342 12.9973 10.9994V16.9994C12.9973 17.2646 13.1026 17.5189 13.2901 17.7065C13.4777 17.894 13.732 17.9994 13.9973 17.9994Z" fill="white"/>
</g>
<defs>
<clipPath id="clip0_1527_4788">
<rect width="24" height="24" fill="white"/>
</clipPath>
</defs>
</svg>
