<svg xmlns="http://www.w3.org/2000/svg" width="27" height="24" viewBox="0 0 27 24" fill="none">
  <g clip-path="url(#clip0_793_7558)">
    <path d="M23.625 4H20.1375C19.8764 2.87141 19.1855 1.85735 18.1814 1.12872C17.1773 0.40009 15.9212 0.00145452 14.625 0H12.375C11.0788 0.00145452 9.82273 0.40009 8.81859 1.12872C7.81445 1.85735 7.12361 2.87141 6.8625 4H3.375C3.07663 4 2.79048 4.10536 2.5795 4.29289C2.36853 4.48043 2.25 4.73478 2.25 5C2.25 5.26522 2.36853 5.51957 2.5795 5.70711C2.79048 5.89464 3.07663 6 3.375 6H4.5V19C4.50179 20.3256 5.09499 21.5964 6.1495 22.5338C7.204 23.4711 8.63371 23.9984 10.125 24H16.875C18.3663 23.9984 19.796 23.4711 20.8505 22.5338C21.905 21.5964 22.4982 20.3256 22.5 19V6H23.625C23.9234 6 24.2095 5.89464 24.4205 5.70711C24.6315 5.51957 24.75 5.26522 24.75 5C24.75 4.73478 24.6315 4.48043 24.4205 4.29289C24.2095 4.10536 23.9234 4 23.625 4ZM12.375 2H14.625C15.3228 2.00076 16.0033 2.19338 16.5731 2.55144C17.1429 2.90951 17.5741 3.41549 17.8076 4H9.19237C9.42591 3.41549 9.85714 2.90951 10.4269 2.55144C10.9967 2.19338 11.6772 2.00076 12.375 2ZM20.25 19C20.25 19.7956 19.8944 20.5587 19.2615 21.1213C18.6286 21.6839 17.7701 22 16.875 22H10.125C9.22989 22 8.37145 21.6839 7.73851 21.1213C7.10558 20.5587 6.75 19.7956 6.75 19V6H20.25V19Z" fill="#4E575F"/>
    <path d="M11.2501 17.9994C11.5485 17.9994 11.8346 17.894 12.0456 17.7065C12.2566 17.5189 12.3751 17.2646 12.3751 16.9994V10.9994C12.3751 10.7342 12.2566 10.4798 12.0456 10.2923C11.8346 10.1047 11.5485 9.99938 11.2501 9.99938C10.9517 9.99938 10.6656 10.1047 10.4546 10.2923C10.2436 10.4798 10.1251 10.7342 10.1251 10.9994V16.9994C10.1251 17.2646 10.2436 17.5189 10.4546 17.7065C10.6656 17.894 10.9517 17.9994 11.2501 17.9994Z" fill="#4E575F"/>
    <path d="M15.7499 17.9994C16.0483 17.9994 16.3345 17.894 16.5454 17.7065C16.7564 17.5189 16.8749 17.2646 16.8749 16.9994V10.9994C16.8749 10.7342 16.7564 10.4798 16.5454 10.2923C16.3345 10.1047 16.0483 9.99938 15.7499 9.99938C15.4516 9.99938 15.1654 10.1047 14.9544 10.2923C14.7435 10.4798 14.6249 10.7342 14.6249 10.9994V16.9994C14.6249 17.2646 14.7435 17.5189 14.9544 17.7065C15.1654 17.894 15.4516 17.9994 15.7499 17.9994Z" fill="#4E575F"/>
  </g>
  <defs>
    <clipPath id="clip0_793_7558">
      <rect width="27" height="24" fill="white"/>
    </clipPath>
  </defs>
</svg>