<svg width="25" height="24" viewBox="0 0 25 24" fill="none" xmlns="http://www.w3.org/2000/svg">
<g clip-path="url(#clip0_741_13394)">
<path d="M17.6153 8.0503C17.3286 8.12647 17.0709 8.28595 16.8749 8.50856C16.6788 8.73117 16.5531 9.00692 16.5138 9.30095C16.4744 9.59498 16.5231 9.89408 16.6537 10.1604C16.7843 10.4268 16.991 10.6484 17.2475 10.7973C17.5041 10.9462 17.7991 11.0157 18.0951 10.997C18.3912 10.9783 18.6751 10.8722 18.9108 10.6922C19.1466 10.5121 19.3237 10.2662 19.4197 9.98555C19.5158 9.70487 19.5264 9.40202 19.4503 9.11529C19.3998 8.92486 19.3122 8.74625 19.1927 8.58966C19.0731 8.43307 18.9239 8.30157 18.7534 8.20267C18.583 8.10377 18.3948 8.03941 18.1995 8.01326C18.0043 7.98712 17.8057 7.9997 17.6153 8.0503Z" fill="#848F9A"/>
<path d="M12.6148 5.0503C12.3281 5.12647 12.0704 5.28595 11.8744 5.50856C11.6783 5.73117 11.5526 6.00693 11.5133 6.30095C11.4739 6.59498 11.5226 6.89408 11.6532 7.16043C11.7838 7.42678 11.9905 7.64842 12.2471 7.79733C12.5036 7.94624 12.7986 8.01573 13.0946 7.99701C13.3907 7.97829 13.6746 7.87221 13.9103 7.69217C14.1461 7.51214 14.3232 7.26623 14.4192 6.98555C14.5153 6.70487 14.5259 6.40202 14.4498 6.1153C14.3993 5.92486 14.3117 5.74625 14.1922 5.58966C14.0726 5.43307 13.9234 5.30157 13.7529 5.20267C13.5825 5.10377 13.3943 5.03941 13.199 5.01327C13.0038 4.98712 12.8052 4.9997 12.6148 5.0503V5.0503Z" fill="#848F9A"/>
<path d="M7.61532 8.0503C7.32861 8.12647 7.07093 8.28595 6.87486 8.50856C6.67878 8.73117 6.55312 9.00692 6.51375 9.30095C6.47439 9.59498 6.52309 9.89408 6.6537 10.1604C6.78432 10.4268 6.99097 10.6484 7.24754 10.7973C7.50411 10.9462 7.79907 11.0157 8.09513 10.997C8.39119 10.9783 8.67505 10.8722 8.91083 10.6922C9.1466 10.5121 9.32369 10.2662 9.41972 9.98555C9.51575 9.70487 9.52639 9.40202 9.45031 9.11529C9.39978 8.92486 9.31223 8.74625 9.19266 8.58966C9.07308 8.43307 8.92383 8.30157 8.75343 8.20267C8.58303 8.10377 8.39481 8.03941 8.19953 8.01326C8.00425 7.98712 7.80573 7.9997 7.61532 8.0503Z" fill="#848F9A"/>
<path d="M7.61532 14.0503C7.32861 14.1265 7.07093 14.2859 6.87486 14.5086C6.67878 14.7312 6.55312 15.0069 6.51375 15.301C6.47439 15.595 6.52309 15.8941 6.6537 16.1604C6.78432 16.4268 6.99097 16.6484 7.24754 16.7973C7.50411 16.9462 7.79907 17.0157 8.09513 16.997C8.39119 16.9783 8.67505 16.8722 8.91083 16.6922C9.1466 16.5121 9.32369 16.2662 9.41972 15.9856C9.51575 15.7049 9.52639 15.402 9.45031 15.1153C9.39978 14.9249 9.31223 14.7462 9.19266 14.5897C9.07308 14.4331 8.92383 14.3016 8.75343 14.2027C8.58303 14.1038 8.39481 14.0394 8.19953 14.0133C8.00425 13.9871 7.80573 13.9997 7.61532 14.0503V14.0503Z" fill="#848F9A"/>
<path d="M13 0.00724798C11.39 -0.0487337 9.78519 0.220038 8.28128 0.79754C6.77736 1.37504 5.40512 2.24945 4.24637 3.36863C3.08762 4.48782 2.16609 5.82886 1.5367 7.31181C0.907318 8.79476 0.582975 10.3893 0.583008 12.0002C0.586713 15.1817 1.85219 18.2318 4.10182 20.4814C6.35145 22.7311 9.40155 23.9965 12.583 24.0002C12.921 24.0002 13.253 23.9782 13.583 23.9502C13.8334 23.9291 14.0667 23.8145 14.2364 23.6292C14.4061 23.4439 14.4999 23.2015 14.499 22.9502L14.467 19.3622C14.4589 18.6532 14.6623 17.9579 15.0512 17.365C15.4402 16.7721 15.997 16.3086 16.6506 16.0336C17.3042 15.7587 18.0249 15.6847 18.7207 15.8213C19.4165 15.9578 20.0558 16.2987 20.557 16.8002L20.657 16.9002C20.884 17.1292 21.1653 17.297 21.4745 17.3881C21.7838 17.4792 22.1111 17.4906 22.426 17.4212C22.7358 17.3562 23.0243 17.2144 23.2649 17.0087C23.5055 16.803 23.6906 16.5401 23.803 16.2442C24.3551 14.7945 24.6191 13.251 24.58 11.7002C24.4675 8.65426 23.2146 5.76173 21.0698 3.59598C18.925 1.43023 16.0448 0.14936 13 0.00724798V0.00724798ZM21.982 15.4072L21.968 15.3932C21.1864 14.6129 20.1902 14.0827 19.1064 13.8701C18.0225 13.6575 16.8999 13.7721 15.8814 14.1993C14.8629 14.6266 13.9945 15.3472 13.3866 16.2694C12.7788 17.1916 12.459 18.2738 12.468 19.3782L12.492 22.0002C9.83984 21.9883 7.30104 20.9233 5.43412 19.0395C3.5672 17.1557 2.52507 14.6074 2.53701 11.9552C2.54894 9.30308 3.61396 6.76428 5.49776 4.89736C7.38156 3.03044 9.92984 1.98831 12.582 2.00025C12.699 2.00025 12.817 2.00025 12.935 2.00625C15.4714 2.12538 17.8705 3.19299 19.6568 4.99751C21.4432 6.80204 22.4865 9.21179 22.58 11.7492C22.613 12.9928 22.4112 14.2315 21.985 15.4002L21.982 15.4072Z" fill="#848F9A"/>
</g>
<defs>
<clipPath id="clip0_741_13394">
<rect width="24" height="24" fill="white" transform="translate(0.5)"/>
</clipPath>
</defs>
</svg>
