<svg xmlns="http://www.w3.org/2000/svg" width="25" height="24" viewBox="0 0 25 24" fill="none">
  <g clip-path="url(#clip0_741_9850)">
    <path d="M19.5 24H5.5C4.17441 23.9984 2.90356 23.4711 1.96622 22.5338C1.02888 21.5964 0.501588 20.3256 0.5 19L0.5 5C0.501588 3.67441 1.02888 2.40356 1.96622 1.46622C2.90356 0.528882 4.17441 0.00158786 5.5 0L19.5 0C20.8256 0.00158786 22.0964 0.528882 23.0338 1.46622C23.9711 2.40356 24.4984 3.67441 24.5 5V19C24.4984 20.3256 23.9711 21.5964 23.0338 22.5338C22.0964 23.4711 20.8256 23.9984 19.5 24ZM5.5 2C4.70435 2 3.94129 2.31607 3.37868 2.87868C2.81607 3.44129 2.5 4.20435 2.5 5V19C2.5 19.7956 2.81607 20.5587 3.37868 21.1213C3.94129 21.6839 4.70435 22 5.5 22H19.5C20.2956 22 21.0587 21.6839 21.6213 21.1213C22.1839 20.5587 22.5 19.7956 22.5 19V5C22.5 4.20435 22.1839 3.44129 21.6213 2.87868C21.0587 2.31607 20.2956 2 19.5 2H5.5ZM9.842 17.005C9.42513 17.0036 9.01601 16.8922 8.656 16.682C8.30034 16.4784 8.00515 16.184 7.80063 15.8289C7.59611 15.4738 7.4896 15.0708 7.492 14.661V9.339C7.49166 8.92914 7.59911 8.52641 7.80358 8.1712C8.00805 7.81599 8.30234 7.52079 8.65692 7.31524C9.0115 7.10968 9.4139 7.00099 9.82376 7.00007C10.2336 6.99915 10.6365 7.10604 10.992 7.31L16.27 9.945C16.6366 10.1429 16.9436 10.4353 17.1592 10.7918C17.3748 11.1483 17.4912 11.556 17.4962 11.9726C17.5012 12.3892 17.3946 12.7995 17.1877 13.1611C16.9807 13.5227 16.6808 13.8223 16.319 14.029L10.943 16.716C10.6077 16.9073 10.228 17.0069 9.842 17.005ZM9.817 9.005C9.76189 9.00498 9.70774 9.01946 9.66 9.047C9.60814 9.07585 9.5651 9.11826 9.5355 9.1697C9.50591 9.22114 9.49087 9.27966 9.492 9.339V14.661C9.49234 14.7195 9.50788 14.7768 9.53709 14.8274C9.5663 14.8781 9.60818 14.9202 9.65861 14.9498C9.70905 14.9794 9.7663 14.9953 9.82475 14.996C9.8832 14.9968 9.94084 14.9823 9.992 14.954L15.368 12.266C15.408 12.2347 15.4399 12.1941 15.4608 12.1478C15.4817 12.1015 15.491 12.0507 15.488 12C15.4893 11.9405 15.4742 11.8818 15.4444 11.8304C15.4146 11.7789 15.3712 11.7365 15.319 11.708L10.045 9.073C9.97624 9.03082 9.89763 9.00737 9.817 9.005Z" fill="#848F9A"/>
  </g>
  <defs>
    <clipPath id="clip0_741_9850">
      <rect width="24" height="24" fill="white" transform="translate(0.5)"/>
    </clipPath>
  </defs>
</svg>