<svg xmlns="http://www.w3.org/2000/svg" width="25" height="24" viewBox="0 0 25 24" fill="none">
  <g clip-path="url(#clip0_741_12371)">
    <path d="M24.5 9C24.5023 8.44948 24.353 7.90895 24.0686 7.4376C23.7842 6.96625 23.3755 6.58225 22.8874 6.32766C22.3993 6.07306 21.8505 5.95769 21.3012 5.99418C20.7519 6.03066 20.2232 6.21759 19.7731 6.5345C19.3229 6.85142 18.9686 7.28609 18.749 7.79091C18.5294 8.29574 18.453 8.85126 18.528 9.39664C18.6031 9.94202 18.8268 10.4562 19.1746 10.883C19.5224 11.3097 19.981 11.6325 20.5 11.816V16C20.5 17.5913 19.8679 19.1174 18.7426 20.2426C17.6174 21.3679 16.0913 22 14.5 22C12.9087 22 11.3826 21.3679 10.2574 20.2426C9.13214 19.1174 8.5 17.5913 8.5 16V15.92C10.1641 15.6786 11.6858 14.8467 12.7874 13.5762C13.8889 12.3058 14.4968 10.6815 14.5 9V5C14.4984 3.67441 13.9711 2.40356 13.0338 1.46622C12.0964 0.528882 10.8256 0.00158786 9.5 0C9.23478 0 8.98043 0.105357 8.79289 0.292893C8.60536 0.48043 8.5 0.734784 8.5 1C8.5 1.26522 8.60536 1.51957 8.79289 1.70711C8.98043 1.89464 9.23478 2 9.5 2C10.2957 2 11.0587 2.31607 11.6213 2.87868C12.1839 3.44129 12.5 4.20435 12.5 5V9C12.5 10.3261 11.9732 11.5979 11.0355 12.5355C10.0979 13.4732 8.82608 14 7.5 14C6.17392 14 4.90215 13.4732 3.96447 12.5355C3.02678 11.5979 2.5 10.3261 2.5 9V5C2.5 4.20435 2.81607 3.44129 3.37868 2.87868C3.94129 2.31607 4.70435 2 5.5 2C5.76522 2 6.01957 1.89464 6.20711 1.70711C6.39464 1.51957 6.5 1.26522 6.5 1C6.5 0.734784 6.39464 0.48043 6.20711 0.292893C6.01957 0.105357 5.76522 0 5.5 0C4.17441 0.00158786 2.90356 0.528882 1.96622 1.46622C1.02888 2.40356 0.501588 3.67441 0.5 5L0.5 9C0.503216 10.6815 1.11109 12.3058 2.21264 13.5762C3.31419 14.8467 4.83592 15.6786 6.5 15.92V16C6.5 18.1217 7.34285 20.1566 8.84315 21.6569C10.3434 23.1571 12.3783 24 14.5 24C16.6217 24 18.6566 23.1571 20.1569 21.6569C21.6571 20.1566 22.5 18.1217 22.5 16V11.816C23.0829 11.6099 23.5879 11.2288 23.9459 10.7247C24.3039 10.2206 24.4974 9.61826 24.5 9ZM21.5 10C21.3022 10 21.1089 9.94135 20.9444 9.83147C20.78 9.72159 20.6518 9.56541 20.5761 9.38268C20.5004 9.19996 20.4806 8.99889 20.5192 8.80491C20.5578 8.61093 20.653 8.43275 20.7929 8.29289C20.9327 8.15304 21.1109 8.0578 21.3049 8.01921C21.4989 7.98063 21.7 8.00043 21.8827 8.07612C22.0654 8.15181 22.2216 8.27998 22.3315 8.44443C22.4414 8.60888 22.5 8.80222 22.5 9C22.5 9.26522 22.3946 9.51957 22.2071 9.70711C22.0196 9.89464 21.7652 10 21.5 10Z" fill="#848F9A"/>
  </g>
  <defs>
    <clipPath id="clip0_741_12371">
      <rect width="24" height="24" fill="white" transform="translate(0.5)"/>
    </clipPath>
  </defs>
</svg>